name ./resultDataOpenSim/trcMotMarkerGrf/sub06/grf-13-08.mot
datacolumns 19
datarows 25
range 0.52000000 0.61600000
endheader

                time	     ground_force_vx	     ground_force_vy	     ground_force_vz	     ground_force_px	     ground_force_py	     ground_force_pz	   l_ground_force_vx	   l_ground_force_vy	   l_ground_force_vz	   l_ground_force_px	   l_ground_force_py	   l_ground_force_pz	     ground_torque_x	     ground_torque_y	     ground_torque_z	   l_ground_torque_x	   l_ground_torque_y	   l_ground_torque_z	
          0.52000000	         48.60370215	        443.05314311	        -26.80267184	         -0.76160586	          0.00000000	          0.08441806	          0.00000000	          0.00000000	          0.00000000	          0.00000000	          0.00000000	          0.00000000	          0.00000000	          1.28926041	          0.00000000	          0.00000000	          0.00000000	          0.00000000	
          0.52400000	         50.02796351	        457.57037155	        -28.88014167	         -0.76046274	          0.00000000	          0.08414050	          0.00000000	          0.00000000	          0.00000000	          0.00000000	          0.00000000	          0.00000000	          0.00000000	          1.24405327	          0.00000000	          0.00000000	          0.00000000	          0.00000000	
          0.52800000	         51.91209995	        472.62752822	        -30.62922471	         -0.75942052	          0.00000000	          0.08381167	          0.00000000	          0.00000000	          0.00000000	          0.00000000	          0.00000000	          0.00000000	          0.00000000	          1.22218101	          0.00000000	          0.00000000	          0.00000000	          0.00000000	
          0.53200000	         54.46227406	        488.15282672	        -31.88589252	         -0.75850541	          0.00000000	          0.08342486	          0.00000000	          0.00000000	          0.00000000	          0.00000000	          0.00000000	          0.00000000	          0.00000000	          1.23331381	          0.00000000	          0.00000000	          0.00000000	          0.00000000	
          0.53600000	         57.75283633	        504.08287869	        -32.56877223	         -0.75771215	          0.00000000	          0.08298577	          0.00000000	          0.00000000	          0.00000000	          0.00000000	          0.00000000	          0.00000000	          0.00000000	          1.28343628	          0.00000000	          0.00000000	          0.00000000	          0.00000000	
          0.54000000	         61.72736413	        520.36522796	        -32.69587742	         -0.75701433	          0.00000000	          0.08251096	          0.00000000	          0.00000000	          0.00000000	          0.00000000	          0.00000000	          0.00000000	          0.00000000	          1.37359476	          0.00000000	          0.00000000	          0.00000000	          0.00000000	
          0.54400000	         66.23712979	        536.95969756	        -32.37877008	         -0.75638369	          0.00000000	          0.08202078	          0.00000000	          0.00000000	          0.00000000	          0.00000000	          0.00000000	          0.00000000	          0.00000000	          1.49928933	          0.00000000	          0.00000000	          0.00000000	          0.00000000	
          0.54800000	         71.10203879	        553.82643309	        -31.79464682	         -0.75579543	          0.00000000	          0.08153272	          0.00000000	          0.00000000	          0.00000000	          0.00000000	          0.00000000	          0.00000000	          0.00000000	          1.65073166	          0.00000000	          0.00000000	          0.00000000	          0.00000000	
          0.55200000	         76.16955379	        570.90895652	        -31.14472298	         -0.75523429	          0.00000000	          0.08105684	          0.00000000	          0.00000000	          0.00000000	          0.00000000	          0.00000000	          0.00000000	          0.00000000	          1.81417282	          0.00000000	          0.00000000	          0.00000000	          0.00000000	
          0.55600000	         81.34515235	        588.13292600	        -30.61294565	         -0.75469802	          0.00000000	          0.08059459	          0.00000000	          0.00000000	          0.00000000	          0.00000000	          0.00000000	          0.00000000	          0.00000000	          1.97427991	          0.00000000	          0.00000000	          0.00000000	          0.00000000	
          0.56000000	         86.58852138	        605.41677282	        -30.33650534	         -0.75419456	          0.00000000	          0.08013777	          0.00000000	          0.00000000	          0.00000000	          0.00000000	          0.00000000	          0.00000000	          0.00000000	          2.11713164	          0.00000000	          0.00000000	          0.00000000	          0.00000000	
          0.56400000	         91.90699300	        622.64684840	        -30.38319986	         -0.75374433	          0.00000000	          0.07967679	          0.00000000	          0.00000000	          0.00000000	          0.00000000	          0.00000000	          0.00000000	          0.00000000	          2.23305646	          0.00000000	          0.00000000	          0.00000000	          0.00000000	
          0.56800000	         97.35694073	        639.60100821	        -30.73141410	         -0.75335797	          0.00000000	          0.07922011	          0.00000000	          0.00000000	          0.00000000	          0.00000000	          0.00000000	          0.00000000	          0.00000000	          2.31851852	          0.00000000	          0.00000000	          0.00000000	          0.00000000	
          0.57200000	        103.01491469	        655.93164497	        -31.27790640	         -0.75298786	          0.00000000	          0.07880215	          0.00000000	          0.00000000	          0.00000000	          0.00000000	          0.00000000	          0.00000000	          0.00000000	          2.37656245	          0.00000000	          0.00000000	          0.00000000	          0.00000000	
          0.57600000	        108.93078049	        671.31352018	        -31.88482261	         -0.75254974	          0.00000000	          0.07846129	          0.00000000	          0.00000000	          0.00000000	          0.00000000	          0.00000000	          0.00000000	          0.00000000	          2.41571506	          0.00000000	          0.00000000	          0.00000000	          0.00000000	
          0.58000000	        115.12593704	        685.63016591	        -32.42411147	         -0.75202085	          0.00000000	          0.07819552	          0.00000000	          0.00000000	          0.00000000	          0.00000000	          0.00000000	          0.00000000	          0.00000000	          2.44756118	          0.00000000	          0.00000000	          0.00000000	          0.00000000	
          0.58400000	        121.61636893	        698.96717442	        -32.79076408	         -0.75149662	          0.00000000	          0.07795907	          0.00000000	          0.00000000	          0.00000000	          0.00000000	          0.00000000	          0.00000000	          0.00000000	          2.48352159	          0.00000000	          0.00000000	          0.00000000	          0.00000000	
          0.58800000	        128.38466137	        711.39864291	        -32.91340701	         -0.75108963	          0.00000000	          0.07770702	          0.00000000	          0.00000000	          0.00000000	          0.00000000	          0.00000000	          0.00000000	          0.00000000	          2.53165830	          0.00000000	          0.00000000	          0.00000000	          0.00000000	
          0.59200000	        135.33361527	        722.79087461	        -32.77758295	         -0.75079592	          0.00000000	          0.07743374	          0.00000000	          0.00000000	          0.00000000	          0.00000000	          0.00000000	          0.00000000	          0.00000000	          2.59439128	          0.00000000	          0.00000000	          0.00000000	          0.00000000	
          0.59600000	        142.31629488	        732.83213696	        -32.43826115	         -0.75049114	          0.00000000	          0.07716769	          0.00000000	          0.00000000	          0.00000000	          0.00000000	          0.00000000	          0.00000000	          0.00000000	          2.66768459	          0.00000000	          0.00000000	          0.00000000	          0.00000000	
          0.60000000	        149.21940902	        741.27302710	        -32.00349435	         -0.75006129	          0.00000000	          0.07694120	          0.00000000	          0.00000000	          0.00000000	          0.00000000	          0.00000000	          0.00000000	          0.00000000	          2.74176357	          0.00000000	          0.00000000	          0.00000000	          0.00000000	
          0.60400000	        156.01269846	        748.12705674	        -31.58966505	         -0.74953067	          0.00000000	          0.07674648	          0.00000000	          0.00000000	          0.00000000	          0.00000000	          0.00000000	          0.00000000	          0.00000000	          2.80306218	          0.00000000	          0.00000000	          0.00000000	          0.00000000	
          0.60800000	        162.73503890	        753.59151056	        -31.28774592	         -0.74901715	          0.00000000	          0.07654503	          0.00000000	          0.00000000	          0.00000000	          0.00000000	          0.00000000	          0.00000000	          0.00000000	          2.83695918	          0.00000000	          0.00000000	          0.00000000	          0.00000000	
          0.61200000	        169.43898707	        757.77689315	        -31.16565876	         -0.74858090	          0.00000000	          0.07632290	          0.00000000	          0.00000000	          0.00000000	          0.00000000	          0.00000000	          0.00000000	          0.00000000	          2.83085524	          0.00000000	          0.00000000	          0.00000000	          0.00000000	
          0.61600000	        176.14512138	        760.57363472	        -31.26205551	         -0.74817382	          0.00000000	          0.07610136	          0.00000000	          0.00000000	          0.00000000	          0.00000000	          0.00000000	          0.00000000	          0.00000000	          2.77707570	          0.00000000	          0.00000000	          0.00000000	          0.00000000	
